<svg width="119" height="119" viewBox="0 0 119 119" fill="none" xmlns="http://www.w3.org/2000/svg">
<g clip-path="url(#clip0_139_52)">
<path fill-rule="evenodd" clip-rule="evenodd" d="M97.4464 20.294C118.73 41.5776 118.73 76.085 97.4464 97.3686C76.1628 118.652 41.6553 118.652 20.3717 97.3686C-0.911852 76.085 -0.911852 41.5776 20.3717 20.294C41.6553 -0.989593 76.1628 -0.989594 97.4464 20.294ZM87.5469 30.1935C103.363 46.0097 103.363 71.6529 87.5469 87.4691C71.7306 103.285 46.0874 103.285 30.2712 87.4691C14.455 71.6529 14.455 46.0097 30.2712 30.1935C46.0874 14.3772 71.7306 14.3772 87.5469 30.1935ZM94.9347 58.5C94.9347 78.1061 79.0408 94 59.4347 94C39.8286 94 23.9347 78.1061 23.9347 58.5C23.9347 38.8939 39.8286 23 59.4347 23C79.0408 23 94.9347 38.8939 94.9347 58.5ZM82.9347 58.5C82.9347 71.4787 72.4134 82 59.4347 82C46.456 82 35.9347 71.4787 35.9347 58.5C35.9347 45.5213 46.456 35 59.4347 35C72.4134 35 82.9347 45.5213 82.9347 58.5Z" fill="white"/>
<path fill-rule="evenodd" clip-rule="evenodd" d="M97.4464 20.294C118.73 41.5776 118.73 76.085 97.4464 97.3686C76.1628 118.652 41.6553 118.652 20.3717 97.3686C-0.911852 76.085 -0.911852 41.5776 20.3717 20.294C41.6553 -0.989593 76.1628 -0.989594 97.4464 20.294ZM87.5469 30.1935C103.363 46.0097 103.363 71.6529 87.5469 87.4691C71.7306 103.285 46.0874 103.285 30.2712 87.4691C14.455 71.6529 14.455 46.0097 30.2712 30.1935C46.0874 14.3772 71.7306 14.3772 87.5469 30.1935ZM94.9347 58.5C94.9347 78.1061 79.0408 94 59.4347 94C39.8286 94 23.9347 78.1061 23.9347 58.5C23.9347 38.8939 39.8286 23 59.4347 23C79.0408 23 94.9347 38.8939 94.9347 58.5ZM82.9347 58.5C82.9347 71.4787 72.4134 82 59.4347 82C46.456 82 35.9347 71.4787 35.9347 58.5C35.9347 45.5213 46.456 35 59.4347 35C72.4134 35 82.9347 45.5213 82.9347 58.5Z" fill="#EAC378"/>
</g>
<defs>
<clipPath id="clip0_139_52">
<rect width="119" height="119" fill="white"/>
</clipPath>
</defs>
</svg>
