<svg width="119" height="119" viewBox="0 0 119 119" fill="none" xmlns="http://www.w3.org/2000/svg">
<g clip-path="url(#clip0_139_52)">
<path fill-rule="evenodd" clip-rule="evenodd" d="M97.6866 20.4627C118.97 41.7463 118.97 76.2537 97.6866 97.5373C76.403 118.821 41.8955 118.821 20.612 97.5373C-0.67162 76.2537 -0.671619 41.7463 20.612 20.4627C41.8955 -0.82089 76.403 -0.820893 97.6866 20.4627ZM87.7871 30.3622C103.603 46.1784 103.603 71.8216 87.7871 87.6378C71.9709 103.454 46.3277 103.454 30.5115 87.6378C14.6952 71.8216 14.6952 46.1784 30.5115 30.3622C46.3277 14.5459 71.9709 14.5459 87.7871 30.3622ZM95.175 58.6687C95.175 78.2748 79.2811 94.1687 59.675 94.1687C40.0688 94.1687 24.175 78.2748 24.175 58.6687C24.175 39.0626 40.0689 23.1687 59.675 23.1687C79.2811 23.1687 95.175 39.0626 95.175 58.6687ZM83.175 58.6687C83.175 71.6474 72.6536 82.1687 59.675 82.1687C46.6963 82.1687 36.175 71.6474 36.175 58.6687C36.175 45.69 46.6963 35.1687 59.675 35.1687C72.6536 35.1687 83.175 45.69 83.175 58.6687Z" fill="white"/>
<path fill-rule="evenodd" clip-rule="evenodd" d="M97.6866 20.4627C118.97 41.7463 118.97 76.2537 97.6866 97.5373C76.403 118.821 41.8955 118.821 20.612 97.5373C-0.67162 76.2537 -0.671619 41.7463 20.612 20.4627C41.8955 -0.82089 76.403 -0.820893 97.6866 20.4627ZM87.7871 30.3622C103.603 46.1784 103.603 71.8216 87.7871 87.6378C71.9709 103.454 46.3277 103.454 30.5115 87.6378C14.6952 71.8216 14.6952 46.1784 30.5115 30.3622C46.3277 14.5459 71.9709 14.5459 87.7871 30.3622ZM95.175 58.6687C95.175 78.2748 79.2811 94.1687 59.675 94.1687C40.0688 94.1687 24.175 78.2748 24.175 58.6687C24.175 39.0626 40.0689 23.1687 59.675 23.1687C79.2811 23.1687 95.175 39.0626 95.175 58.6687ZM83.175 58.6687C83.175 71.6474 72.6536 82.1687 59.675 82.1687C46.6963 82.1687 36.175 71.6474 36.175 58.6687C36.175 45.69 46.6963 35.1687 59.675 35.1687C72.6536 35.1687 83.175 45.69 83.175 58.6687Z" fill="#EAC378"/>
<path fill-rule="evenodd" clip-rule="evenodd" d="M97.6866 20.4627C118.97 41.7463 118.97 76.2537 97.6866 97.5373C76.403 118.821 41.8955 118.821 20.612 97.5373C-0.67162 76.2537 -0.671619 41.7463 20.612 20.4627C41.8955 -0.82089 76.403 -0.820893 97.6866 20.4627ZM87.7871 30.3622C103.603 46.1784 103.603 71.8216 87.7871 87.6378C71.9709 103.454 46.3277 103.454 30.5115 87.6378C14.6952 71.8216 14.6952 46.1784 30.5115 30.3622C46.3277 14.5459 71.9709 14.5459 87.7871 30.3622ZM95.175 58.6687C95.175 78.2748 79.2811 94.1687 59.675 94.1687C40.0688 94.1687 24.175 78.2748 24.175 58.6687C24.175 39.0626 40.0689 23.1687 59.675 23.1687C79.2811 23.1687 95.175 39.0626 95.175 58.6687ZM83.175 58.6687C83.175 71.6474 72.6536 82.1687 59.675 82.1687C46.6963 82.1687 36.175 71.6474 36.175 58.6687C36.175 45.69 46.6963 35.1687 59.675 35.1687C72.6536 35.1687 83.175 45.69 83.175 58.6687Z" fill="url(#paint0_linear_139_52)"/>
</g>
<defs>
<linearGradient id="paint0_linear_139_52" x1="13.8979" y1="97.8316" x2="80.3134" y2="-20.2782" gradientUnits="userSpaceOnUse">
<stop stop-color="#FF9A3D"/>
<stop offset="0.24873" stop-color="#FFD999"/>
<stop offset="0.47873" stop-color="#FFFDCA"/>
<stop offset="0.62753" stop-color="#E1F2FF"/>
<stop offset="1" stop-color="#FFEC86"/>
</linearGradient>
<clipPath id="clip0_139_52">
<rect width="119" height="119" fill="white"/>
</clipPath>
</defs>
</svg>
