<svg width="35" height="35" viewBox="0 0 35 35" fill="none" xmlns="http://www.w3.org/2000/svg">
<path d="M7.32822 30.625C6.52613 30.625 5.8395 30.3394 5.26832 29.7682C4.69714 29.197 4.41155 28.5104 4.41155 27.7083V16.1146C3.85252 15.6042 3.4211 14.9479 3.11728 14.1458C2.81346 13.3437 2.80738 12.4687 3.09905 11.5208L4.6303 6.5625C4.82475 5.93056 5.1711 5.40799 5.66936 4.99479C6.16763 4.5816 6.74488 4.375 7.40113 4.375H27.672C28.3282 4.375 28.8994 4.57552 29.3855 4.97656C29.8716 5.3776 30.2241 5.90625 30.4428 6.5625L31.9741 11.5208C32.2657 12.4687 32.2596 13.3316 31.9558 14.1094C31.652 14.8872 31.2206 15.5556 30.6616 16.1146V27.7083C30.6616 28.5104 30.376 29.197 29.8048 29.7682C29.2336 30.3394 28.547 30.625 27.7449 30.625H7.32822ZM20.7449 14.5833C21.4011 14.5833 21.8994 14.3585 22.2397 13.9089C22.58 13.4592 22.7136 12.9549 22.6407 12.3958L21.8386 7.29167H18.9949V12.6875C18.9949 13.1979 19.165 13.6415 19.5053 14.0182C19.8456 14.395 20.2588 14.5833 20.7449 14.5833ZM14.1824 14.5833C14.7414 14.5833 15.1971 14.395 15.5496 14.0182C15.902 13.6415 16.0782 13.1979 16.0782 12.6875V7.29167H13.2345L12.4324 12.3958C12.3352 12.9792 12.4628 13.4896 12.8152 13.9271C13.1676 14.3646 13.6234 14.5833 14.1824 14.5833ZM7.6928 14.5833C8.1303 14.5833 8.51311 14.4253 8.84124 14.1094C9.16936 13.7934 9.36988 13.3924 9.4428 12.9062L10.2449 7.29167H7.40113L5.9428 12.1771C5.79697 12.6632 5.87596 13.1858 6.17978 13.7448C6.4836 14.3038 6.98794 14.5833 7.6928 14.5833ZM27.3803 14.5833C28.0852 14.5833 28.5956 14.3038 28.9116 13.7448C29.2275 13.1858 29.3004 12.6632 29.1303 12.1771L27.5991 7.29167H24.8282L25.6303 12.9062C25.7032 13.3924 25.9037 13.7934 26.2319 14.1094C26.56 14.4253 26.9428 14.5833 27.3803 14.5833ZM7.32822 27.7083H27.7449V17.4271C27.6234 17.4757 27.5444 17.5 27.5079 17.5H27.3803C26.7241 17.5 26.1468 17.3906 25.6485 17.1719C25.1503 16.9531 24.6581 16.6007 24.172 16.1146C23.7345 16.5521 23.2362 16.8924 22.6772 17.1354C22.1181 17.3785 21.5227 17.5 20.8907 17.5C20.2345 17.5 19.6208 17.3785 19.0496 17.1354C18.4784 16.8924 17.9741 16.5521 17.5366 16.1146C17.1234 16.5521 16.6433 16.8924 16.0964 17.1354C15.5496 17.3785 14.9602 17.5 14.3282 17.5C13.6234 17.5 12.9853 17.3785 12.4142 17.1354C11.843 16.8924 11.3386 16.5521 10.9011 16.1146C10.3907 16.625 9.88638 16.9835 9.38811 17.1901C8.88985 17.3967 8.32475 17.5 7.6928 17.5H7.52874C7.46797 17.5 7.40113 17.4757 7.32822 17.4271V27.7083Z" fill="#8FBBC5"/>
</svg>
